HIERARCHY
ROOT Hips
{
	OFFSET 0.00000 0.00000 0.00000
	CHANNELS 6 Xposition Yposition Zposition Zrotation Yrotation Xrotation 
	JOINT RightUpLegDummy
	{
		OFFSET 0 0 0
		CHANNELS 3 Zrotation Yrotation Xrotation
		JOINT RightUpLeg
		{
			OFFSET -3.52197 -3.41223 0.04002
			CHANNELS 3 Zrotation Yrotation Xrotation
			JOINT RightLeg
			{
				OFFSET 0.00006 -17.42390 1.60435
				CHANNELS 3 Zrotation Yrotation Xrotation
				JOINT RightFoot
				{
					OFFSET 0.06153 -16.50078 -1.63901
					CHANNELS 3 Zrotation Yrotation Xrotation
					JOINT RightToes
					{
						OFFSET 0.00298 -1.73825 3.34613
						CHANNELS 3 Zrotation Yrotation Xrotation
						End Site
						{
							OFFSET 0.00480 -0.05416 3.85043
						}
					}
				}
			}
		}
	}
	JOINT SpineDummy
	{
		OFFSET 0 0 0
		CHANNELS 3 Zrotation Yrotation Xrotation
		JOINT Spine
		{
			OFFSET 0.00000 4.68130 0.00000
			CHANNELS 3 Zrotation Yrotation Xrotation
			JOINT Spine1
			{
				OFFSET -0.00000 10.10138 0.05002
				CHANNELS 3 Zrotation Yrotation Xrotation
				JOINT HEadDummy
				{
					OFFSET 0 0 0
					CHANNELS 3 Zrotation Yrotation Xrotation
					JOINT Head
					{
						OFFSET -0.00000 3.43865 0.00438
						CHANNELS 3 Zrotation Yrotation Xrotation
						End Site
						{
							OFFSET -0.11417 5.02924 0.98962
						}
					}
				}
				JOINT LeftShoulder1Dummy
				{
					OFFSET 0 0 0
					CHANNELS 3 Zrotation Yrotation Xrotation
					JOINT LeftShoulder1
					{
						OFFSET 3.53937 -0.14262 -0.08662
						CHANNELS 3 Zrotation Yrotation Xrotation
						JOINT LeftArm
						{
							OFFSET 4.04833 -0.00133 0.12681
							CHANNELS 3 Zrotation Yrotation Xrotation
							JOINT LeftForeArm
							{
								OFFSET 10.33880 -0.01036 -0.55515
								CHANNELS 3 Zrotation Yrotation Xrotation
								JOINT LeftHand
								{
									OFFSET 8.69677 0.07543 0.40060
									CHANNELS 3 Zrotation Yrotation Xrotation
									End Site
									{
										OFFSET 5.28377 -0.21905 0.59205
									}
								}
							}
						}
					}
				}
				JOINT RightShoulderDummy
				{
					OFFSET 0 0 0
					CHANNELS 3 Zrotation Yrotation Xrotation
					JOINT RightShoulder
					{
						OFFSET -3.53937 -0.14262 -0.08660
						CHANNELS 3 Zrotation Yrotation Xrotation
						JOINT RightArm
						{
							OFFSET -4.04833 -0.00133 0.12683
							CHANNELS 3 Zrotation Yrotation Xrotation
							JOINT RightForeArm
							{
								OFFSET -10.37987 -0.01039 -0.55511
								CHANNELS 3 Zrotation Yrotation Xrotation
								JOINT RightHand
								{
									OFFSET -8.67398 0.07538 0.40058
									CHANNELS 3 Zrotation Yrotation Xrotation
									End Site
									{
										OFFSET -5.24810 -0.21916 0.59204
									}
								}
							}
						}
					}
				}
			}
		}
	}
	JOINT LeftUpLegDummy
	{
		OFFSET 0 0 0
		CHANNELS 3 Zrotation Yrotation Xrotation
		JOINT LeftUpLeg
		{
			OFFSET 3.52197 -3.41223 0.04002
			CHANNELS 3 Zrotation Yrotation Xrotation
			JOINT LeftLeg
			{
				OFFSET -0.00012 -17.42399 1.60337
				CHANNELS 3 Zrotation Yrotation Xrotation
				JOINT LeftFoot
				{
					OFFSET -0.09972 -16.50070 -1.63802
					CHANNELS 3 Zrotation Yrotation Xrotation
					JOINT LeftToes
					{
						OFFSET -0.01575 -1.73823 3.34611
						CHANNELS 3 Zrotation Yrotation Xrotation
						End Site
						{
							OFFSET 0.03150 -0.01868 3.85031
						}
					}
				}
			}
		}
	}
}
MOTION
Frames: 17
Frame Time: 0.033333
7.0617 39.5523 45.3152 -178.6950 -24.9501 173.5200 0.0000 0.0000 0.0000 4.9800 4.1292 -18.4172 0.6254 -2.4700 -2.6700 13.4210 -1.3091 -0.2555 0.0000 -0.0000 -0.0000 0.0000 0.0000 0.0000 -4.9682 -2.5578 11.2621 5.3159 -3.8998 -1.3080 -0.0000 0.0000 -0.0000 6.5505 -7.5842 -9.8079 -0.0000 0.0000 -0.0000 -34.1011 -2.9715 2.5985 -42.9011 -19.8251 -16.9333 -10.5169 5.1432 47.5431 15.8654 -3.6128 -1.2046 -0.0000 0.0000 -0.0000 34.8164 5.1711 3.5425 41.1247 3.4543 -14.9954 11.1407 2.5607 24.0687 -11.4533 1.7244 -0.6876 0.0000 0.0000 0.0000 -2.7991 3.0350 5.3780 -7.0703 -10.6546 8.8282 -4.2955 0.0371 -12.3416 0.0000 0.0000 -0.0000
6.5306 39.4216 44.7457 -178.8820 -26.5396 173.5200 0.0000 0.0000 0.0000 5.5626 4.6285 -19.1761 0.3769 -6.8099 -1.4204 13.8091 -1.3260 -0.4354 0.0000 -0.0000 -0.0000 0.0000 0.0000 0.0000 -5.3547 -2.7336 11.5585 5.4643 -4.1559 -1.2064 -0.0000 0.0000 -0.0000 6.8599 -8.0604 -10.9225 -0.0000 0.0000 -0.0000 -34.2160 -3.0079 2.6206 -43.4670 -19.6056 -17.4227 -10.1207 5.1024 49.1099 16.0185 -3.5603 -1.2095 -0.0000 0.0000 -0.0000 34.7624 5.1639 3.5348 40.6700 3.0851 -15.3863 11.0569 2.2292 24.0141 -11.5819 1.5487 -0.6793 0.0000 0.0000 0.0000 -3.4905 2.7766 6.2992 -7.3649 -11.7351 9.6809 -2.3401 0.0425 -13.1249 0.0000 0.0000 -0.0000
5.9349 39.2731 44.1282 -179.0320 -28.4608 173.5140 0.0000 0.0000 0.0000 5.9951 4.6186 -19.4817 0.1103 -11.1621 0.1741 13.8077 -1.2789 -0.8340 0.0000 -0.0000 -0.0000 0.0000 0.0000 0.0000 -5.5337 -3.0336 11.6109 5.5575 -4.5084 -1.0361 -0.0000 0.0000 -0.0000 7.0462 -8.6450 -11.6321 -0.0000 0.0000 -0.0000 -34.4240 -3.0608 2.6557 -44.0507 -19.4377 -17.7768 -9.6838 5.0234 51.8788 16.1225 -3.3282 -1.1871 -0.0000 0.0000 -0.0000 34.7016 5.1562 3.5264 40.2117 2.4176 -15.9083 10.9464 1.9545 23.8226 -11.7500 1.4883 -0.6838 0.0000 0.0000 0.0000 -4.0871 2.5583 7.3972 -7.7153 -13.0413 10.5141 -0.9041 0.0625 -13.9709 0.0000 0.0000 -0.0000
5.2819 39.1289 43.4569 -179.1450 -30.6680 173.6530 0.0000 0.0000 0.0000 6.3268 4.2067 -19.2527 -0.0495 -14.4474 1.2751 13.5529 -1.2111 -1.2139 0.0000 -0.0000 -0.0000 0.0000 0.0000 0.0000 -5.6640 -3.4518 11.1919 5.7413 -4.9822 -0.6860 -0.0000 0.0000 -0.0000 7.2053 -9.2981 -12.0427 -0.0000 0.0000 -0.0000 -34.6175 -3.1027 2.6856 -44.7239 -19.0271 -18.6258 -8.9117 4.9469 54.5473 14.7057 -3.1928 -1.0639 -0.0000 0.0000 -0.0000 34.6828 5.1471 3.5210 39.6293 1.6656 -16.5712 10.8198 1.5294 23.4057 -11.6369 1.5493 -0.6827 0.0000 0.0000 0.0000 -4.5600 2.3886 8.5343 -8.2333 -14.9739 11.2855 0.5844 0.1005 -14.3302 0.0000 0.0000 -0.0000
4.5720 38.9580 42.7296 -179.2010 -32.9555 174.0320 0.0000 0.0000 0.0000 6.6319 3.6757 -18.7323 -0.1981 -16.4830 2.3344 13.6958 -1.1006 -2.2484 0.0000 -0.0000 -0.0000 0.0000 0.0000 0.0000 -5.7702 -3.9223 10.1839 6.1018 -5.5237 -0.1246 -0.0000 0.0000 -0.0000 7.3460 -9.9245 -12.2402 -0.0000 0.0000 -0.0000 -34.7990 -3.1256 2.7072 -45.2100 -18.3415 -20.2628 -7.8647 4.9428 54.9979 12.3073 -2.9603 -0.8613 -0.0000 0.0000 -0.0000 34.6268 5.1279 3.5083 38.9791 1.0073 -17.3194 10.6730 0.9495 22.7164 -11.0925 1.2759 -0.6262 0.0000 0.0000 0.0000 -4.9673 2.4806 9.4148 -8.8665 -17.1731 12.3871 3.5602 0.1837 -14.4266 0.0000 0.0000 -0.0000
3.8153 38.7616 41.9732 -179.1340 -35.2566 174.4190 0.0000 0.0000 0.0000 7.0046 3.3614 -17.8399 -0.5513 -17.5545 3.5694 14.0020 -0.8696 -4.4270 0.0000 -0.0000 -0.0000 0.0000 0.0000 0.0000 -5.6959 -4.4188 8.9217 6.5505 -6.0870 0.5185 -0.0000 0.0000 -0.0000 7.4325 -10.4206 -12.3249 -0.0000 0.0000 -0.0000 -34.9861 -3.1706 2.7382 -45.2186 -17.8553 -21.9447 -7.0040 4.9999 53.5013 11.6843 -2.2677 -0.7495 -0.0000 0.0000 -0.0000 34.4502 5.0980 3.4807 38.4175 0.4080 -18.0676 10.4883 0.2778 22.2393 -10.5813 0.6334 -0.5424 0.0000 0.0000 0.0000 -5.1549 3.3978 10.2902 -9.4072 -19.4218 13.7140 7.6135 0.3141 -14.7227 0.0000 0.0000 -0.0000
3.0353 38.6240 41.2092 -178.9720 -37.6587 174.5510 0.0000 0.0000 0.0000 7.3706 3.5938 -16.3074 -0.9963 -18.3853 3.9781 12.3472 -0.6143 -5.8719 0.0000 -0.0000 -0.0000 0.0000 0.0000 0.0000 -5.4533 -4.9623 7.7786 7.0037 -6.6805 1.1225 -0.0000 0.0000 -0.0000 7.5642 -10.7768 -12.4462 -0.0000 0.0000 -0.0000 -35.0979 -3.2671 2.7854 -44.8505 -18.1259 -22.9282 -6.4007 5.0009 53.6284 13.8499 -1.7046 -0.8335 -0.0000 0.0000 -0.0000 34.2512 5.0748 3.4541 37.9273 -0.2726 -18.7680 10.2817 -0.4977 22.3613 -10.6079 0.3605 -0.5213 0.0000 0.0000 0.0000 -4.8973 5.4041 11.6777 -9.8119 -22.4643 14.7294 10.7938 0.3906 -14.5628 0.0000 0.0000 -0.0000
2.2068 38.5557 40.4210 -178.7300 -39.9450 174.4870 0.0000 0.0000 0.0000 7.8385 3.8103 -14.9077 -1.6628 -18.9416 4.0204 7.7115 -0.4842 -4.1884 0.0000 -0.0000 -0.0000 0.0000 0.0000 0.0000 -4.9483 -5.4964 6.5945 7.3087 -7.2148 1.6662 -0.0000 0.0000 -0.0000 7.8993 -11.0769 -12.6124 -0.0000 0.0000 -0.0000 -35.1124 -3.3791 2.8325 -44.4464 -19.0665 -23.3700 -5.7006 4.8756 57.5472 16.2278 -1.7262 -0.9815 -0.0000 0.0000 -0.0000 34.2006 5.0732 3.4490 37.3542 -1.0647 -19.4203 10.0891 -1.3513 22.8274 -11.0441 0.7765 -0.5794 0.0000 0.0000 0.0000 -4.1999 7.9443 13.2055 -10.5810 -26.1765 16.1271 12.8316 0.2997 -13.3067 0.0000 0.0000 -0.0000
1.2753 38.4650 39.6145 -178.2170 -41.4939 174.3050 0.0000 0.0000 0.0000 8.2572 3.7220 -14.7529 -2.4632 -18.7650 5.7876 2.2879 -0.2202 -0.1696 0.0000 -0.0000 -0.0000 0.0000 0.0000 0.0000 -3.6902 -5.8308 5.1477 7.2054 -7.4659 2.0197 -0.0000 0.0000 -0.0000 8.3787 -11.3402 -12.6243 -0.0000 0.0000 -0.0000 -35.1460 -3.4436 2.8613 -44.2266 -19.9155 -23.6503 -4.9436 4.6973 62.7270 16.5629 -2.0619 -1.0479 -0.0000 0.0000 -0.0000 34.2774 5.0832 3.4597 36.6937 -1.7476 -20.0426 9.9028 -2.1885 23.2766 -11.4127 1.2005 -0.6374 0.0000 0.0000 0.0000 -3.0862 10.4034 14.0160 -12.3209 -28.7494 19.1414 14.3043 0.1184 -11.7312 0.0000 0.0000 -0.0000
0.3318 38.3987 38.8624 -177.3450 -41.9826 173.8470 0.0000 0.0000 0.0000 8.6028 3.2823 -14.9515 -2.5650 -17.5974 8.5057 -1.6331 0.2119 3.2256 0.0000 -0.0000 -0.0000 0.0000 0.0000 0.0000 -1.7877 -5.8318 4.0681 6.9302 -7.3649 1.8118 -0.0000 0.0000 -0.0000 8.7626 -11.4692 -12.3954 -0.0000 0.0000 -0.0000 -35.1814 -3.4382 2.8616 -44.3270 -20.0346 -23.5149 -4.7778 4.6125 65.0117 15.6559 -2.3598 -1.0277 -0.0000 0.0000 -0.0000 34.2832 5.0801 3.4590 36.1456 -1.9095 -20.6421 9.6842 -2.9566 23.6278 -11.5612 1.1013 -0.6368 0.0000 0.0000 0.0000 -1.3295 12.6700 14.0915 -15.0613 -29.6504 23.3395 12.7040 -0.0774 -10.1428 0.0000 0.0000 -0.0000
-0.5275 38.3401 38.1751 -176.5500 -41.9036 173.1340 0.0000 0.0000 0.0000 8.9850 2.6334 -14.9979 -2.6351 -16.0166 12.2091 -4.0693 0.5190 3.0179 0.0000 -0.0000 -0.0000 0.0000 0.0000 0.0000 -0.4057 -5.6701 3.9672 7.1730 -7.2035 1.0897 -0.0000 0.0000 -0.0000 8.9974 -11.4457 -12.1518 -0.0000 0.0000 -0.0000 -34.9390 -3.3963 2.8273 -44.9090 -19.5398 -22.4648 -5.6176 4.6738 63.1982 15.1430 -2.3739 -0.9945 -0.0000 0.0000 -0.0000 34.1336 5.0543 3.4356 35.9046 -1.3212 -21.1548 9.4580 -3.4772 23.6458 -11.6575 0.9043 -0.6240 0.0000 0.0000 0.0000 1.0724 15.2460 13.2401 -19.8636 -30.7139 29.9416 4.2826 -0.0586 -7.6642 0.0000 0.0000 -0.0000
-1.2231 38.2978 37.5320 -176.3790 -42.0140 172.5580 0.0000 0.0000 0.0000 9.2679 1.8018 -14.6366 -3.1308 -14.7779 15.7205 -6.1907 0.6360 0.3680 0.0000 -0.0000 -0.0000 0.0000 0.0000 0.0000 -0.6110 -5.5867 4.6768 8.3160 -7.2405 0.2307 -0.0000 0.0000 -0.0000 9.2879 -11.5088 -12.0911 -0.0000 0.0000 -0.0000 -34.2868 -3.3696 2.7709 -45.8143 -19.0455 -20.5612 -7.1113 4.7932 59.5740 15.0510 -2.4106 -0.9928 -0.0000 0.0000 -0.0000 33.9824 5.0245 3.4106 36.0495 -0.2863 -21.3860 9.3397 -3.2150 22.8384 -11.6574 1.1373 -0.6455 0.0000 0.0000 0.0000 3.2769 16.9532 11.3540 -25.6690 -30.7740 37.8790 -10.7575 0.8413 -3.0683 0.0000 0.0000 -0.0000
-1.7941 38.2657 36.9172 -176.7590 -42.4285 172.3890 0.0000 0.0000 0.0000 9.1281 1.3532 -14.1395 -3.8655 -14.5453 18.4595 -7.6547 0.6088 -2.1803 0.0000 -0.0000 -0.0000 0.0000 0.0000 0.0000 -1.7831 -5.5503 5.4691 9.6815 -7.3342 -0.4876 -0.0000 0.0000 -0.0000 9.7055 -11.9891 -12.0858 -0.0000 0.0000 -0.0000 -33.6024 -3.3753 2.7256 -46.3711 -18.9737 -18.2436 -8.7472 4.8823 56.5388 14.6018 -2.7815 -1.0061 -0.0000 0.0000 -0.0000 33.9909 5.0151 3.4076 36.5966 0.6529 -21.0899 9.4305 -1.7102 21.2415 -11.3441 1.5563 -0.6657 0.0000 0.0000 0.0000 4.5352 17.3740 8.4530 -27.8485 -26.9005 44.1466 -23.6536 2.5700 1.1676 0.0000 0.0000 -0.0000
-2.3745 38.2652 36.3255 -177.1610 -42.5992 172.4050 0.0000 0.0000 0.0000 8.8922 1.0358 -13.3309 -4.3562 -14.3440 20.1710 -7.8963 0.5061 -3.8339 0.0000 -0.0000 -0.0000 0.0000 0.0000 0.0000 -2.3650 -5.3745 5.9227 10.2088 -7.1715 -1.0185 -0.0000 0.0000 -0.0000 10.0225 -12.9318 -11.9626 -0.0000 0.0000 -0.0000 -33.3897 -3.3692 2.7084 -46.0055 -19.2745 -15.9195 -10.3065 4.9358 54.3966 14.0766 -3.3434 -1.0332 -0.0000 0.0000 -0.0000 34.1172 5.0288 3.4240 37.5057 1.4336 -20.1880 9.7113 0.6841 19.6633 -10.8829 1.7282 -0.6528 0.0000 0.0000 0.0000 5.0504 17.1117 4.9210 -23.8884 -19.3496 48.0523 -25.5476 2.8899 1.3576 0.0000 0.0000 -0.0000
-2.9929 38.3024 35.7705 -177.4470 -42.0622 172.3120 0.0000 0.0000 0.0000 8.8037 0.7708 -12.0347 -4.4832 -13.5716 21.1241 -7.7101 0.3888 -5.2868 0.0000 -0.0000 -0.0000 0.0000 0.0000 0.0000 -1.9667 -4.9628 6.3490 9.6932 -6.6459 -1.4539 -0.0000 0.0000 -0.0000 10.0575 -13.9823 -11.7903 -0.0000 0.0000 -0.0000 -33.6153 -3.2937 2.6941 -44.9564 -19.6690 -14.0530 -11.5761 4.9867 52.3119 14.2724 -3.7948 -1.1006 -0.0000 0.0000 -0.0000 34.2341 5.0515 3.4432 38.6382 2.5438 -18.7911 10.1086 2.9974 18.7197 -10.7432 1.7775 -0.6483 0.0000 0.0000 0.0000 5.1876 16.7801 1.3468 -14.8910 -10.5251 50.6589 -18.5097 1.6378 -1.4102 0.0000 0.0000 -0.0000
-3.5900 38.3390 35.2566 -177.9840 -40.8228 172.2420 0.0000 0.0000 0.0000 8.6729 0.5821 -10.5869 -4.4617 -12.3548 21.9339 -8.1071 0.2956 -6.8116 0.0000 -0.0000 -0.0000 0.0000 0.0000 0.0000 -1.4134 -4.3694 7.0376 8.6918 -5.8812 -1.8290 -0.0000 0.0000 -0.0000 9.8929 -14.7087 -11.6435 -0.0000 0.0000 -0.0000 -33.7878 -3.1694 2.6566 -43.9978 -19.9509 -13.1157 -12.2603 5.0559 49.7566 15.1627 -3.9798 -1.1946 -0.0000 0.0000 -0.0000 34.3086 5.0724 3.4581 39.8324 4.2770 -16.9386 10.5755 4.7123 18.2823 -11.0709 1.9479 -0.6837 0.0000 0.0000 0.0000 4.9540 16.2964 -1.9732 -4.3546 -2.9828 52.5113 -10.6407 0.8208 -2.5131 0.0000 0.0000 -0.0000
-4.1580 38.3711 34.7672 -178.8580 -39.1542 172.3650 0.0000 0.0000 0.0000 8.2857 0.3386 -9.2046 -4.2649 -10.8303 22.6698 -8.9431 0.2273 -8.0597 0.0000 -0.0000 -0.0000 0.0000 0.0000 0.0000 -1.1748 -3.7088 7.7997 7.6426 -5.0469 -2.1301 -0.0000 0.0000 -0.0000 9.6225 -14.9664 -11.3596 -0.0000 0.0000 -0.0000 -33.6899 -3.0863 2.6171 -43.4971 -20.0582 -13.1752 -12.3452 5.1399 46.8223 16.1802 -3.9580 -1.2751 -0.0000 0.0000 -0.0000 34.3697 5.0889 3.4701 41.0044 6.3392 -14.2414 10.9883 6.2069 17.8321 -11.5029 2.1134 -0.7262 0.0000 0.0000 0.0000 4.4495 15.2375 -5.0344 3.3323 1.7046 53.5347 -5.8729 0.5337 -1.0626 0.0000 0.0000 -0.0000
